<svg xmlns="http://www.w3.org/2000/svg" xmlnsXlink="http://www.w3.org/1999/xlink" width="256" height="351" preserveAspectRatio="xMidYMid" xmlnsV="https://vecta.io/nano"><defs><path d="M1.253 280.732l1.606-3.131 99.353-188.518-44.15-83.475C54.392-1.283 45.074.474 43.87 8.188L1.253 280.732z" id="A"/><filter x="-50%" y="-50%" width="200%" height="200%" id="B"><feGaussianBlur stdDeviation="17.5" in="SourceAlpha"/><feOffset/><feComposite in2="SourceAlpha" operator="arithmetic" k2="-1" k3="1"/><feColorMatrix values="0 0 0 0 0   0 0 0 0 0   0 0 0 0 0  0 0 0 0.06 0"/></filter><path d="M134.417 148.974l32.039-32.812-32.039-61.007c-3.042-5.791-10.433-6.398-13.443-.59l-17.705 34.109-.529 1.744 31.678 58.557z" id="C"/><filter x="-50%" y="-50%" width="200%" height="200%" id="D"><feGaussianBlur stdDeviation="3.5" in="SourceAlpha"/><feOffset dx="1" dy="-9"/><feComposite in2="SourceAlpha" operator="arithmetic" k2="-1" k3="1"/><feColorMatrix values="0 0 0 0 0   0 0 0 0 0   0 0 0 0 0  0 0 0 0.09 0"/></filter></defs><path d="M0 282.998l2.123-2.972L102.527 89.512l.212-2.017L58.479 4.358C54.771-2.606 44.331-.845 43.114 6.951L0 282.998z" fill="#ffc24a"/><use fill="#ffa712" fill-rule="evenodd" xlinkHref="#A"/><use filter="url(#B)" xlinkHref="#A"/><path d="M135.005 150.381l32.955-33.751-32.965-62.93c-3.129-5.957-11.867-5.974-14.963 0l-17.612 33.589v2.861l32.584 60.232z" fill="#f4bd62"/><use fill="#ffa50e" fill-rule="evenodd" xlinkHref="#C"/><use filter="url(#D)" xlinkHref="#C"/><path fill="#f6820c" d="M0 282.998l.962-.967 3.496-1.421 128.478-128 1.628-4.431-32.05-61.074z"/><path d="M139.121 347.551l116.275-64.848-33.204-204.494c-1.039-6.398-8.888-8.928-13.467-4.34L0 282.998l115.608 64.548c7.306 4.079 16.204 4.081 23.513.006" fill="#fde068"/><path d="M254.354 282.16L221.402 79.218c-1.031-6.35-7.558-8.977-12.103-4.424L1.289 282.601l114.338 63.909c7.251 4.048 16.081 4.05 23.334.006l115.392-64.355z" fill="#fcca3f"/><path d="M139.121 345.641c-7.308 4.076-16.206 4.074-23.513-.006L.931 282.015l-.931.983 115.608 64.548c7.306 4.079 16.204 4.081 23.513.006l116.275-64.848-.285-1.752-115.99 64.689z" fill="#eeab37"/></svg>